<svg version="1.0" xmlns="http://www.w3.org/2000/svg" viewBox="0 0 4802 1538"><path d="M2803.5 975.5c0 40.1.1 56.4.2 36.2.2-20.3.2-53.1 0-73-.1-19.9-.2-3.4-.2 36.8z" stroke="none" fill="#FFF" fill-opacity=".02" stroke-opacity=".02" stroke-width="0"/><path d="M3051.5 1025.5c0 67.1.1 94.4.2 60.7.2-33.8.2-88.7 0-122-.1-33.4-.2-5.8-.2 61.3z" stroke="none" fill="#FFF" fill-opacity=".14" stroke-opacity=".14" stroke-width="0"/><g fill="#FFF" stroke="none" fill-opacity=".31" stroke-opacity=".31" stroke-width="0"><path d="M1535.3 773.7c13.6.2 35.8.2 49.5 0 13.6-.1 2.4-.2-24.8-.2s-38.4.1-24.7.2zM1765.7 773.7c13.3.2 35.3.2 49 0 13.6-.1 2.8-.2-24.2-.2-26.9 0-38.1.1-24.8.2z"/></g><g fill="#FFF" stroke="none" fill-opacity=".45" stroke-opacity=".45" stroke-width="0"><path d="M2130.5 953c0 26.7.1 37.6.2 24.2.2-13.3.2-35.1 0-48.5-.1-13.3-.2-2.4-.2 24.3zM2130.5 1102c0 23.9.1 33.7.2 21.7.2-11.9.2-31.5 0-43.5-.1-11.9-.2-2.1-.2 21.8z"/></g><g fill="#FFF" stroke="none" stroke-width="0"><path d="M2062.1 386.1c-39.4 4.2-80.9 21.2-111.2 45.6-76.5 61.9-95.1 166.5-44.3 250.2 10.3 16.9 29.1 38.2 45.4 51.4 36.6 29.5 85.1 46.7 132.3 46.7 95.3.1 179.5-64.1 201.3-153.5 21.6-88.8-22.3-178.6-107.8-220-35.4-17.2-76.7-24.4-115.7-20.4zM2637.2 580.5l.3 193h381v-382h-102l-.5 141.6-.5 141.6-36-37.1c-19.8-20.4-79.8-82.3-133.4-137.6-53.6-55.3-100-103.2-103.3-106.5l-5.8-6 .2 193zM1200 582.5V774l51.3-.2 51.2-.3.3-65.8.2-65.7h32.8c25.7 0 34.9-.4 42.2-1.6 64.9-11.2 110.7-71.5 104.1-137.1-3.2-31.4-13.9-55-34.6-75.8-18.3-18.5-34.8-27.4-62.7-33.8-9-2-12-2.1-97-2.4l-87.8-.4v191.6zM1509 582v191h102V631l64 .2 64 .3.3 70.5.2 70.5h102v-381h-102l-.2 78-.3 78-64 .3-64 .2V391h-102v191zM2328 582.5V774h135.5c79.5 0 135.5-.4 135.5-.9s-5.1-5.1-11.2-10.3c-6.2-5.2-44.1-36.8-84.3-70.3l-73-61 64-.5 64-.5.3-41.3.2-41.2h-64c-35.2 0-64-.3-63.9-.8 0-.4 6-6.1 13.3-12.7 39.9-36.4 155.6-142.7 155.6-143.1 0-.2-61.2-.4-136-.4h-136v191.5zM3071 582.5V774l50.8-.2 50.7-.3v-382l-50.7-.3-50.8-.2v191.5zM3216 391.9c0 1.5 190.3 189.2 191.6 188.9 1.4-.4 192.4-188 192.4-189.1 0-.4-86.4-.7-192-.7-112.2 0-192 .4-192 .9zM3353.3 636.2c-92.4 91.4-137.3 136.2-137.3 137 0 .5 86.4.8 192 .8s192-.3 192-.8c0-.6-64.7-64.5-168.2-166.1l-24.7-24.2-53.8 53.3zM1414.3 1022.8c-35.3 68-63.9 124-63.7 124.4.8 1.3 257.4 1 257.4-.3S1481.2 902 1479.6 900.3c-.8-.9-17.4 30.3-65.3 122.5zM2341.2 900.7c-36.7 70.3-127.2 245.4-127.2 246.2 0 1.3 256.6 1.6 257.4.3.4-.6-127.2-246.3-128.7-247.8-.3-.3-1 .3-1.5 1.3zM1626.5 903.2c-.3.7-.4 56-.3 122.8l.3 121.5h141v-57l-37.7-.3-37.8-.2-.2-93.8-.3-93.7-32.3-.3c-25.3-.2-32.4 0-32.7 1zM1784.5 903.2c-.3.7-.4 56-.3 122.8l.3 121.5h65l.5-42 .5-42 25-.6c22.4-.5 25.7-.8 32-2.8 22.4-7.3 39.1-21.5 49.1-41.6 6.2-12.6 8.4-22.1 8.4-36.4 0-38.7-22.3-67.7-59.3-77.3-7.8-2-11.1-2.1-64.4-2.5-46.5-.4-56.4-.2-56.8.9zM1982.7 902.7c-.4.3-.7 55.5-.7 122.5V1147h66v-91l41.3.2 41.2.3.3 45.2.2 45.3h65V902h-65l-.2 50.2-.3 50.3h-82l-.3-50.3-.2-50.2h-32.3c-17.8 0-32.7.3-33 .7zM2584.5 903.3c-.3.7-.4 14.5-.3 30.7l.3 29.5 38.3.3c21 .1 38.2.4 38.2.7 0 .2-7.8 11.8-17.4 25.7-9.5 13.9-26.8 39.2-38.5 56.3l-21.1 30.9.2 35.1.3 35h193v-57l-66.2-.5-66.2-.5 65.9-92.7c36.3-51 66-93.2 66-93.7 0-1.7-191.9-1.5-192.5.2zM2805.7 902.7c-.4.3-.7 35.9-.7 79.1 0 75 .1 78.8 2 88.4 4.1 19.7 12.7 36.3 26.3 50.5 17.6 18.3 38 28.1 66.5 31.8 10.3 1.4 12.7 1.4 23.4 0 14-1.8 26.2-5.2 36.1-10 30.2-14.4 49.8-40 57.3-74.5 1.4-6.5 1.7-18.4 2.1-85.9.4-64.5.2-78.5-.9-79.2-1.5-1-211.1-1.2-212.1-.2zM3052.5 903.2c-.3.7-.4 56-.3 122.8l.3 121.5h141l.3-28.8.2-28.7h-76l-.2-93.8-.3-93.7-32.3-.3c-25.3-.2-32.4 0-32.7 1zM3211.4 903.3c-.2.7-.3 37.8-.2 82.3.3 79.5.4 81 2.5 88.6 5.5 19.4 13 33.1 25 45.8 17.8 18.8 38.3 28.7 67.1 32.5 10.3 1.4 12.7 1.4 23.4 0 6.5-.9 15.7-2.7 20.4-4.1 33.6-9.7 59.3-34.8 69.7-67.9 5.2-16.6 5.2-17.4 5.2-100.5v-77.5l-106.3-.3c-87.6-.2-106.3 0-106.8 1.1z"/></g><path d="M2636.5 581.5c0 105 .1 148.2.2 95.8.2-52.3.2-138.3 0-191-.1-52.7-.2-9.9-.2 95.2z" stroke="none" fill="#FFF" fill-opacity=".31" stroke-opacity=".31" stroke-width="0"/><path d="M1850.5 1104.5c0 22.5.1 31.9.2 20.8.2-11.1.2-29.5 0-41-.1-11.4-.2-2.4-.2 20.2z" stroke="none" fill="#FFF" fill-opacity=".27" stroke-opacity=".27" stroke-width="0"/><g fill="#FFF" stroke="none" fill-opacity=".23" stroke-opacity=".23" stroke-width="0"><path d="M1611.5 469.5c0 42.3.1 59.5.2 38.2.2-21.4.2-56 0-77-.1-21-.2-3.6-.2 38.8zM1611.5 702c0 38.2.1 53.9.2 34.7.2-19.1.2-50.3 0-69.5-.1-19.1-.2-3.4-.2 34.8z"/></g><path d="M1768.4 1119c0 15.1.2 21.3.3 13.7.2-7.5.2-19.9 0-27.5-.1-7.5-.3-1.3-.3 13.8z" stroke="none" fill="#FFF" fill-opacity=".14" stroke-opacity=".14" stroke-width="0"/><path d="M1692.5 995c0 50.9.1 71.7.2 46.2.2-25.4.2-67 0-92.5-.1-25.4-.2-4.6-.2 46.3z" stroke="none" fill="#FFF" fill-opacity=".08" stroke-opacity=".08" stroke-width="0"/><g fill="#FFF" stroke="none" fill-opacity=".05" stroke-opacity=".05" stroke-width="0"><path d="M1810.3 901.7c13.6.2 35.8.2 49.5 0 13.6-.1 2.4-.2-24.8-.2s-38.4.1-24.7.2zM2633.3 901.7c26.2.2 69.2.2 95.5 0 26.2-.1 4.7-.2-47.8-.2s-74 .1-47.7.2z"/></g><g fill="#FFF" stroke="none" fill-opacity=".02" stroke-opacity=".02" stroke-width="0"><path d="M1535.3 389.7c13.6.2 35.8.2 49.5 0 13.6-.1 2.4-.2-24.8-.2s-38.4.1-24.7.2zM1765.7 389.7c13.3.2 35.3.2 49 0 13.6-.1 2.8-.2-24.2-.2-26.9 0-38.1.1-24.8.2zM2942.7 389.7c13.3.2 35.3.2 49 0 13.6-.1 2.8-.2-24.2-.2-26.9 0-38.1.1-24.8.2zM1999.3 1148.7c8.6.2 22.8.2 31.5 0 8.6-.1 1.5-.3-15.8-.3s-24.4.2-15.7.3zM2148.3 1148.7c8.7.2 22.7.2 31 0 8.4-.1 1.3-.3-15.8-.3-17 0-23.9.2-15.2.3z"/></g><g fill="#FFF" stroke="none" fill-opacity=".21" stroke-opacity=".21" stroke-width="0"><path d="M1711.8 1089.7c10 .2 26.4.2 36.5 0 10-.1 1.8-.2-18.3-.2s-28.3.1-18.2.2zM3137.8 1089.7c10 .2 26.4.2 36.5 0 10-.1 1.8-.2-18.3-.2s-28.3.1-18.2.2z"/></g><path d="M2069.3 1002.7c11.5.2 29.9.2 41 0 11.1-.1 1.8-.2-20.8-.2-22.5 0-31.6.1-20.2.2z" stroke="none" fill="#FFF" fill-opacity=".38" stroke-opacity=".38" stroke-width="0"/><path d="M2069.8 1057.7c11.1.2 29.3.2 40.5 0 11.1-.1 2-.2-20.3-.2s-31.4.1-20.2.2z" stroke="none" fill="#FFF" fill-opacity=".01" stroke-opacity=".01" stroke-width="0"/><g fill="#FFF" stroke="none" fill-opacity=".03" stroke-opacity=".03" stroke-width="0"><path d="M1642.8 901.7c8.9.2 23.5.2 32.5 0 8.9-.1 1.6-.3-16.3-.3-17.9 0-25.2.2-16.2.3zM2857.7 901.7c29.2.2 77.4.2 107 0 29.6-.1 5.7-.2-53.2-.2-58.8 0-83.1.1-53.8.2zM3068.8 901.7c8.9.2 23.5.2 32.5 0 8.9-.1 1.6-.3-16.3-.3-17.9 0-25.2.2-16.2.3zM3263.7 901.7c29.2.2 77.4.2 107 0 29.6-.1 5.7-.2-53.2-.2-58.8 0-83.1.1-53.8.2z"/></g><g fill="#FFF" stroke="none" fill-opacity=".25" stroke-opacity=".25" stroke-width="0"><path d="M2048.5 953c0 26.7.1 37.6.2 24.2.2-13.3.2-35.1 0-48.5-.1-13.3-.2-2.4-.2 24.3zM2048.5 1102c0 23.9.1 33.7.2 21.7.2-11.9.2-31.5 0-43.5-.1-11.9-.2-2.1-.2 21.8z"/></g><path d="M3070.5 582.5c0 104.5.1 147.1.2 94.7.2-52.5.2-138 0-190-.1-52.1-.2-9.2-.2 95.3z" stroke="none" fill="#FFF" fill-opacity=".38" stroke-opacity=".38" stroke-width="0"/><path d="M2804.5 976c0 39.3.1 55.4.2 35.7.2-19.6.2-51.8 0-71.5-.1-19.6-.2-3.5-.2 35.8z" stroke="none" fill="#FFF" fill-opacity=".47" stroke-opacity=".47" stroke-width="0"/><g fill="#FFF" stroke="none" fill-opacity=".04" stroke-opacity=".04" stroke-width="0"><path d="M3019.5 582.5c0 105 .1 148.2.2 95.8.2-52.3.2-138.3 0-191-.1-52.7-.2-9.9-.2 95.2zM3019.5 974.5c0 39.6.1 55.7.2 35.7.2-20 .2-52.4 0-72-.1-19.6-.2-3.3-.2 36.3z"/></g><g fill="none" stroke="none" fill-opacity="0" stroke-opacity="0" stroke-width="0"><path d="M2129.5 951.5c0 27.5.1 38.6.2 24.7.2-13.9.2-36.4 0-50-.1-13.6-.2-2.2-.2 25.3zM2586 982.9c0 1.1-.4 2.3-1 2.6-.5.3-1 1.5-1 2.6 0 1 .5 1.9 1 1.9.6 0 1-.9 1-2.1 0-1.2.8-2.3 2-2.6 1.1-.3 2-1.4 2-2.4 0-1.2-.7-1.9-2-1.9s-2 .7-2 1.9zM2129.5 1103c0 24.5.1 34.5.2 22.3.2-12.3.2-32.3 0-44.5-.1-12.3-.2-2.3-.2 22.2z"/></g><g fill="#FFF" stroke="none" fill-opacity=".1" stroke-opacity=".1" stroke-width="0"><path d="M1303.5 708.5c0 35.7.1 50.2.2 32.2.2-18.1.2-47.3 0-65-.1-17.7-.2-3-.2 32.8zM1981.5 1025c0 66.3.1 93.4.2 60.2.2-33.1.2-87.3 0-120.5-.1-33.1-.2-6-.2 60.3z"/></g><g fill="#FFF" stroke="none" fill-opacity=".3" stroke-opacity=".3" stroke-width="0"><path d="M1644.3 631.7c17.5.2 45.9.2 63 0 17.2-.1 2.9-.2-31.8-.2-34.6 0-48.7.1-31.2.2zM2463.8 631.7c17.2.2 45.1.2 62 0 16.9-.1 2.8-.2-31.3-.2s-47.9.1-30.7.2zM2778.4 1118.5c0 14.8.2 21.1.3 13.8.2-7.2.2-19.4 0-27-.1-7.6-.3-1.7-.3 13.2z"/></g><g fill="#FFF" stroke="none" fill-opacity=".07" stroke-opacity=".07" stroke-width="0"><path d="M1226.8 774.7c13.9.2 36.4.2 50 0 13.6-.1 2.2-.2-25.3-.2s-38.6.1-24.7.2zM2396.3 774.7c37.3.2 98.1.2 135 0 37-.1 6.5-.2-67.8-.2-74.2 0-104.5.1-67.2.2zM2732.8 774.7c52.5.2 138 .2 190 0 52.1-.1 9.2-.2-95.3-.2s-147.1.1-94.7.2zM3096.8 774.7c13.8.2 36.6.2 50.5 0 13.8-.1 2.5-.2-25.3-.2s-39.1.1-25.2.2zM3312.3 774.7c52.6.2 138.8.2 191.5 0 52.6-.1 9.5-.2-95.8-.2s-148.4.1-95.7.2z"/></g><path d="M1508.5 582c0 104.2.1 146.9.2 94.8.2-52.2.2-137.4 0-189.5-.1-52.2-.2-9.5-.2 94.7z" stroke="none" fill="#FFF" fill-opacity=".33" stroke-opacity=".33" stroke-width="0"/><g fill="#FFF" stroke="none" fill-opacity=".15" stroke-opacity=".15" stroke-width="0"><path d="M1240.3 390.7c21.3.2 56.1.2 77.5 0 21.3-.1 3.8-.2-38.8-.2-42.6 0-60.1.1-38.7.2zM2396.3 390.7c37.3.2 98.1.2 135 0 37-.1 6.5-.2-67.8-.2-74.2 0-104.5.1-67.2.2z"/></g><g fill="#FFF" stroke="none" fill-opacity=".13" stroke-opacity=".13" stroke-width="0"><path d="M3096.8 390.7c13.8.2 36.6.2 50.5 0 13.8-.1 2.5-.2-25.3-.2s-39.1.1-25.2.2zM3312.3 390.7c52.6.2 138.8.2 191.5 0 52.6-.1 9.5-.2-95.8-.2s-148.4.1-95.7.2z"/></g><path d="M2915.5 532c0 77.3.1 108.9.2 70.3.2-38.7.2-101.9 0-140.5-.1-38.7-.2-7.1-.2 70.2z" stroke="none" fill="#FFF" fill-opacity=".09" stroke-opacity=".09" stroke-width="0"/><path d="M1842.5 582c0 104.8.1 147.6.2 95.3.2-52.4.2-138.2 0-190.5-.1-52.4-.2-9.6-.2 95.2z" stroke="none" fill="#FFF" fill-opacity=".07" stroke-opacity=".07" stroke-width="0"/><path d="M2069.2 1056.7c10.8.2 28.8.2 40 0 11.2-.1 2.3-.2-19.7-.2s-31.1.1-20.3.2z" stroke="none" fill="#FFF" fill-opacity=".34" stroke-opacity=".34" stroke-width="0"/><g fill="#FFF" stroke="none" fill-opacity=".39" stroke-opacity=".39" stroke-width="0"><path d="M1535.3 390.7c13.6.2 35.8.2 49.5 0 13.6-.1 2.4-.2-24.8-.2s-38.4.1-24.7.2zM1766.3 390.7c13.6.2 35.8.2 49.5 0 13.6-.1 2.4-.2-24.8-.2s-38.4.1-24.7.2zM2942.7 390.7c13.3.2 35.3.2 49 0 13.6-.1 2.8-.2-24.2-.2-26.9 0-38.1.1-24.8.2zM1999.3 1147.7c8.6.2 22.8.2 31.5 0 8.6-.1 1.5-.3-15.8-.3s-24.4.2-15.7.3zM2148.3 1147.7c8.7.2 22.7.2 31 0 8.4-.1 1.3-.3-15.8-.3-17 0-23.9.2-15.2.3z"/></g><g fill="#FFF" stroke="none" fill-opacity=".2" stroke-opacity=".2" stroke-width="0"><path d="M1999.3 901.7c8.6.2 22.8.2 31.5 0 8.6-.1 1.5-.3-15.8-.3s-24.4.2-15.7.3zM2148.3 901.7c8.7.2 22.7.2 31 0 8.4-.1 1.3-.3-15.8-.3-17 0-23.9.2-15.2.3z"/></g><path d="M2327.5 582.5c0 104.5.1 147.1.2 94.7.2-52.5.2-138 0-190-.1-52.1-.2-9.2-.2 95.3z" stroke="none" fill="#FFF" fill-opacity=".4" stroke-opacity=".4" stroke-width="0"/><path d="M2196.5 1025c0 66.3.1 93.4.2 60.2.2-33.1.2-87.3 0-120.5-.1-33.1-.2-6-.2 60.3z" stroke="none" fill="#FFF" fill-opacity=".39" stroke-opacity=".39" stroke-width="0"/><path d="M1859.3 1063.7c4.8.2 12.6.2 17.5 0 4.8-.1.8-.3-8.8-.3-9.6 0-13.6.2-8.7.3z" stroke="none" fill="#FFF" fill-opacity=".43" stroke-opacity=".43" stroke-width="0"/><path d="M3173.5 582.5c0 104.5.1 147.1.2 94.7.2-52.5.2-138 0-190-.1-52.1-.2-9.2-.2 95.3z" stroke="none" fill="#FFF" fill-opacity=".19" stroke-opacity=".19" stroke-width="0"/><g fill="#FFF" stroke="none" fill-opacity=".06" stroke-opacity=".06" stroke-width="0"><path d="M3425.5 974.5c0 39.6.1 55.7.2 35.7.2-20 .2-52.4 0-72-.1-19.6-.2-3.3-.2 36.3zM1662.8 1148.7c19.5.2 51 .2 70 0 19.1-.1 3.2-.2-35.3-.2s-54.1.1-34.7.2zM3088.3 1148.7c19.1.2 50.3.2 69.5 0 19.1-.1 3.4-.2-34.8-.2-38.2 0-53.9.1-34.7.2z"/></g><path d="M2559.5 589c0 21.7.1 30.6.2 19.7.2-10.8.2-28.6 0-39.5-.1-10.8-.2-1.9-.2 19.8z" stroke="none" fill="#FFF" fill-opacity=".11" stroke-opacity=".11" stroke-width="0"/><g fill="#FFF" stroke="none" fill-opacity=".09" stroke-opacity=".09" stroke-width="0"><path d="M1783.5 1025.5c0 66.5.1 93.9.2 60.8.2-33.1.2-87.5 0-121-.1-33.4-.2-6.4-.2 60.2zM2640.3 964.7c3.7.2 9.6.2 13 0 3.4-.2.4-.3-6.8-.3-7.1 0-9.9.1-6.2.3zM2679.3 1089.7c18 .2 47.4.2 65.5 0 18-.1 3.2-.2-32.8-.2s-50.8.1-32.7.2z"/></g><path d="M1317.8 642.7c7.9.2 20.5.2 28 0 7.5-.1 1.1-.3-14.3-.3s-21.6.2-13.7.3z" stroke="none" fill="#FFF" fill-opacity=".37" stroke-opacity=".37" stroke-width="0"/><path d="M1625.5 1025.5c0 66.5.1 93.9.2 60.8.2-33.1.2-87.5 0-121-.1-33.4-.2-6.4-.2 60.2z" stroke="none" fill="#FFF" fill-opacity=".28" stroke-opacity=".28" stroke-width="0"/><path d="M3194.4 1118.5c0 14.8.2 21.1.3 13.8.2-7.2.2-19.4 0-27-.1-7.6-.3-1.7-.3 13.2z" stroke="none" fill="#FFF" fill-opacity=".24" stroke-opacity=".24" stroke-width="0"/><g fill="#FFF" stroke="none" fill-opacity=".36" stroke-opacity=".36" stroke-width="0"><path d="M2583.4 933c0 15.7.2 22.1.3 14.2.2-7.8.2-20.6 0-28.5-.1-7.8-.3-1.4-.3 14.3zM2583.4 1124c0 12.4.2 17.4.3 11.2.2-6.1.2-16.3 0-22.5-.1-6.1-.3-1.1-.3 11.3z"/></g><g fill="#FFF" stroke="none" fill-opacity=".3" stroke-opacity=".3" stroke-width="0"><path d="M1643.3 547.7c17.4.2 46 .2 63.5 0 17.4-.1 3.1-.2-31.8-.2s-49.2.1-31.7.2zM2463.3 547.7c17.4.2 46 .2 63.5 0 17.4-.1 3.1-.2-31.8-.2s-49.2.1-31.7.2z"/></g><g fill="#FFF" stroke="none" fill-opacity=".06" stroke-opacity=".06" stroke-width="0"><path d="M1738.5 469c0 42.6.1 60.1.2 38.7.2-21.3.2-56.1 0-77.5-.1-21.3-.2-3.8-.2 38.8zM1738.5 702.5c0 38.5.1 54.1.2 34.7.2-19.5.2-51 0-70-.1-19.1-.2-3.2-.2 35.3zM1414.3 1148.7c35.7.2 93.7.2 129 0 35.3-.1 6.2-.2-64.8-.2-70.9 0-99.8.1-64.2.2zM1800.8 1148.7c8.9.2 23.5.2 32.5 0 8.9-.1 1.6-.3-16.3-.3-17.9 0-25.2.2-16.2.3zM2279.3 1148.7c35.7.2 93.7.2 129 0 35.3-.1 6.2-.2-64.8-.2-70.9 0-99.8.1-64.2.2zM2632.8 1148.7c26.5.2 69.9.2 96.5 0 26.5-.1 4.8-.2-48.3-.2-53.1 0-74.8.1-48.2.2z"/></g><path d="M3118.5 996.5c0 50.6.1 71.4.2 46.3.2-25.1.2-66.5 0-92-.1-25.5-.2-4.9-.2 45.7z" stroke="none" fill="#FFF" fill-opacity=".21" stroke-opacity=".21" stroke-width="0"/><path d="M3210.5 976c0 39.3.1 55.4.2 35.7.2-19.6.2-51.8 0-71.5-.1-19.6-.2-3.5-.2 35.8z" stroke="none" fill="#FFF" fill-opacity=".44" stroke-opacity=".44" stroke-width="0"/></svg>