<svg xmlns="http://www.w3.org/2000/svg" viewBox="0 0 190 40">
  <g id="rtj-logo" fill="#000">
    <path d="M189.925 9.67c-.051-.685-.072-1.371-.112-2.056-.005-.087-.05-.17-.073-.256-.1-.383-.211-.763-.295-1.15-.063-.288-.02-.62-.148-.87a3.21 3.21 0 01-.36-1.694c.018-.311-.124-.619.04-.943.071-.143.017-.404-.07-.562-.217-.397-.45-.796-.74-1.139-.335-.393-.796-.567-1.33-.537-.155.008-.32-.056-.467-.116-.553-.224-1.087-.429-1.648.014-.488.385-.978.767-1.581.99-.295.108-.52.387-.795.562-.615.393-1.238.774-1.864 1.15-.095.055-.229.04-.337.077a.653.653 0 00-.232.137c-.111.105-.188.25-.31.336-.202.142-.444.23-.635.383-.12.093-.177.263-.281.429l.466.093c-.012.264-.15.325-.367.333a.59.59 0 00-.343.12c-.198.168-.365.373-.551.555-.154.15-.3.321-.486.425-1.092.622-1.752 1.62-2.33 2.681-.096.178-.077.467-.011.671a.502.502 0 01-.054.47c-.497.822-.535 1.746-.366 2.625.122.646.03 1.35.43 1.95.225.337-.017.66-.195.941-.185.287-.108.498.08.74.18.23.352.068.527.035.14-.027.278-.071.415-.112.257-.076.39.007.435.281.06.387.128.775.23 1.152.118.425.326.818.75 1.005.21.094.282.228.35.423.12.356.233.723.686.824.098.022.185.17.244.278.248.444.45.919.737 1.335.186.27.3.538.342.852.013.098.04.194.062.288l.417-.056c.477 1.204.593 2.415.304 3.659-.072.304-.262.406-.715.386.08-.23.146-.448.23-.658.122-.302.066-.55-.169-.763-.27.46-.538.897-.782 1.348-.054.1-.042.254-.02.377.086.517.09.515-.379.754-.034.017-.063.044-.094.067l-.249-.02c.05-.088.101-.177.15-.266l-.263-.012-.126-.207c.007-.067.013-.134.022-.202l-.007-.238c-.028-.14-.075-.279-.078-.419-.005-.273.057-.552.018-.818a20.052 20.052 0 00-.332-1.759c-.116-.49-.278-.953-.723-1.287-.46-.345-.563-.92-.402-1.478.075-.258.12-.55.073-.81-.045-.26-.1-.567-.454-.673-.08-.024-.131-.247-.146-.383-.039-.346-.04-.697-.083-1.042-.01-.074-.126-.178-.201-.185-.072-.007-.183.076-.228.15-.081.131-.127.285-.184.43-.371.954-.535 1.942-.396 2.956.09.66.064 1.293-.121 1.934-.142.496-.314.999-.178 1.536.09.354.22.716.212 1.072a53.602 53.602 0 01-.194 3.437c-.03.329-.169.687-.532.86-.024.013-.027.07-.044.11.07.03.138.057.211.087-.08.196-.152.378-.229.556-.701 1.618-1.756 2.96-3.206 3.966-.986.685-2.013 1.312-3.017 1.97-.252.165-.49.35-.732.527-.172.124-.282.272-.18.453-.643.297-1.313.534-1.905.9-.6.372-1.383.383-1.867 1.013.425.06.848.096 1.267.076.636-.03 1.27-.1 1.905-.155a4.59 4.59 0 00.31-.04c1.722-.27 3.388-.746 5.028-1.326a1.34 1.34 0 00.507-.345c.257-.273.57-.401.926-.452.232-.034.472-.027.7-.078.7-.158 1.407-.226 2.122-.285.534-.044 1.058-.26 1.58-.416.267-.08.516-.223.786-.293.533-.138.948-.349 1.134-.944.06-.187.463-.392.692-.374a3.319 3.319 0 001.532-.236c.798-.324 1.495-.796 1.995-1.52.2-.286.203-.547-.067-.791-.147-.135-.121-.263.05-.334.44-.183.663-.572.92-.93.076-.105.137-.23.233-.312.689-.585.981-1.395 1.277-2.205.098-.272-.006-.483-.28-.588-.08-.03-.161-.055-.251-.085l.52-1.284.165.131c.065-.373.124-.731.193-1.088.04-.204.152-.413.126-.606-.077-.58-.275-1.136-.702-1.55-.43-.418-.771-.865-.984-1.437-.307-.827-.669-1.635-1.03-2.442-.08-.182-.22-.374-.386-.474a1.937 1.937 0 01-.654-.652c-.296-.469-.597-.936-.898-1.402-.1-.153-.212-.297-.305-.452-.375-.624-.75-1.247-1.114-1.878-.18-.313-.366-.63-.489-.967-.299-.827-.564-1.668-.876-2.605.351-.503.778-1.11 1.202-1.722.132-.193.243-.401.376-.594.258-.371.454-.838.803-1.085.964-.684 1.993-1.275 3.01-1.91.219.303.493.442.865.476.521.048.71.314.713.851v.755l.758-.531c.005.314.134.594-.196.773-.052.028-.072.133-.09.207-.155.672-.324 1.34-.456 2.017a5.804 5.804 0 00.015 2.414c.02.097.152.169.28.3-.012.056.002.216-.071.3-.414.469-.522 1.065-.58 1.631-.056.532-.47 1.084-.025 1.63.01.011-.015.048-.016.073-.077.875-.154 1.75-.226 2.626a1.57 1.57 0 00.016.392c.06.365.116.734.432 1.02.064-.465.067-.927.098-1.387.008-.14.05-.337.147-.4.437-.286.599-.733.783-1.179.28-.673.597-1.331.874-2.006.327-.794.726-1.576.909-2.404.17-.77.46-1.468.814-2.146.293-.56.464-1.12.419-1.755" id="S"/>
    <path d="M164.577 36.637c.859-.301 1.63-.817 2.536-.997.107-.021.197-.122.295-.186.15-.098.29-.226.454-.291.407-.163.831-.29 1.241-.445.412-.155.823-.318 1.225-.497.26-.115.414-.308.294-.575.201-.165.385-.305.556-.457.32-.283.653-.556.945-.866.249-.262.558-.54.641-.863.097-.375.311-.638.545-.865.572-.552.422-1.327.762-1.942-.47.177-.888.335-1.305.495a.333.333 0 00-.098.065c-.626.565-1.416.772-2.2.974-1.15.295-2.313.545-3.386 1.089-.124.062-.328.04-.464-.017a2.806 2.806 0 00-1.337-.224c-.846.068-1.693.135-2.538.184-.208.013-.417-.042-.734-.079.353-.582.636-1.078.948-1.555.278-.427.599-.829.512-1.391-.01-.066.055-.174.118-.214.412-.272.425-.307.178-.759-.178-.327-.084-.578.248-.653.439-.1.51-.257.3-.653-.03-.055-.056-.111-.094-.186.095-.07.179-.128.26-.189.228-.17.542-.296.663-.524.261-.494.446-1.033.62-1.568.184-.568.037-1.226.472-1.732.049-.055.016-.177.024-.268.036-.345.005-.718.13-1.029a3.26 3.26 0 01.657-1.004c.48-.509.664-1.097.683-1.776.008-.266.082-.54.175-.792.407-1.107.844-2.204 1.25-3.312a48.55 48.55 0 00.868-2.555c.2-.659.34-1.332.22-2.04-.058-.346-.076-.657-.57-.583.023-.233.052-.426.057-.619.005-.299.011-.6-.018-.896-.059-.594-.152-1.185-.204-1.779-.015-.184-.002-.379-.224-.36-.09.008-.169.217-.24.342-.02.038.016.104.006.153-.072.415-.237.793-.38 1.18l-.083-.034-.147-.733-.147-.01c-.092.178-.214.347-.272.535-.233.775-.448 1.555-.667 2.334-.095.34-.229.677-.261 1.023-.048.513-.26.95-.478 1.398-.37.763-.739 1.527-1.077 2.305-.193.441-.293.923-.486 1.364-.682 1.555-1.387 3.101-2.081 4.65-.481 1.07-.83 2.197-1.472 3.198-.27.422-.399.934-.605 1.399a5.667 5.667 0 01-.38.725c-.287.45-.606.882-.892 1.334-.361.573-.659 1.19-1.061 1.731-.746 1.005-1.539 1.976-2.329 2.948-.583.718-1.167 1.439-1.801 2.11-.498.527-.996 1.087-1.73 1.304-.31.092-.64.112-.952.195-.67.176-1.208.6-1.727 1.026-.592.487-1.244.856-1.934 1.167-1.048.47-2.103.926-3.152 1.394-.344.154-.576.568-.493.83.429-.044.872-.03 1.277-.145.764-.216 1.508-.505 2.258-.767.172-.06.336-.18.509-.195.175-.015.36.065.54.103-.082.243.116.197.233.222.13.026.26.03.39.054 1.31.247 2.624.489 3.965.389.38-.028.75-.18 1.128-.266.378-.086.754-.186 1.138-.233.348-.044.71.01 1.056-.044.424-.064.86-.15 1.125-.56-.32-.351-.737-.158-1.099-.27.777-.571 1.673-.66 2.536-.843.05-.01.118.034.165.07.133.098.26.206.445.355l-1.828.643c.33.367 1.084.527 1.54.322.138-.062.293-.099.442-.108.656-.04 1.296-.13 1.908-.391.168-.072.37-.1.554-.094.628.021 1.243.038 1.854-.176" id="L"/>
    <path d="M147.627 34.56c.71-.382 1.404-.793 2.112-1.178.226-.122.474-.201.713-.298.203-.083.425-.131.605-.248.468-.305.914-.642 1.372-.96.608-.423 1.223-.837 1.826-1.267.074-.052.121-.171.138-.267.054-.318.248-.485.528-.624.659-.33 1.304-.69 1.937-1.027-.046-.33-.202-.38-.453-.307-.652.187-1.3.407-1.963.533-1.768.335-3.457.908-5.128 1.553-.767.296-1.526.633-2.317.834-.973.246-1.977.369-2.966.543-.1.018-.2.023-.3.033-.143-.38-.04-.698.17-.979.135-.18.145-.338.068-.543-.198-.537-.19-.54.286-.878.374-.266.386-.432.052-.729-.315-.278-.297-.387.089-.522l.224-.073c.678-.229.84-.456.868-1.168a.68.68 0 01.12-.347c.344-.475.593-.97.52-1.584-.042-.325.158-.509.48-.494.064.003.132.012.188-.008.466-.171.932-.336 1.39-.527.479-.2.935-.457 1.422-.63.391-.14.811-.192 1.22-.28.5-.11 1-.233 1.372-.617.477-.492.971-.95 1.67-1.106a.597.597 0 00.207-.108c.981-.703 2.144-1 3.242-1.432.883-.346 1.809-.582 2.713-.875.185-.06.404-.109.528-.239.204-.214.415-.316.705-.305.055.001.163-.087.162-.13-.004-.075-.06-.192-.12-.21a2.657 2.657 0 00-.574-.11c-.832-.068-1.666-.143-2.5-.181-.425-.02-.853.033-1.282.054l-.569.155c-.119-.193-.296-.167-.485-.143a34.23 34.23 0 01-1.24.124c-.194.016-.392.003-.585.023-.674.067-1.346.146-2.018.214-.233.024-.506-.044-.695.056-.53.285-1.126.143-1.695.322.123-.328.268-.625.45-.897.242-.361.377-.8.788-1.05.091-.054.078-.279.114-.425.067-.27.064-.592.218-.797.292-.39.46-.805.538-1.277.1-.62.572-.952 1.149-.752.355.123.665.074.984-.041.67-.242 1.34-.487 2-.755.152-.063.268-.22.399-.335.105-.09.193-.221.312-.265.648-.234 1.287-.527 1.957-.648.821-.148 1.572-.474 2.344-.742.89-.309 1.736-.711 2.269-1.565.134-.214.334-.418.551-.54.428-.236.904-.388 1.334-.622.244-.132.45-.344.641-.55.069-.073.095-.27.044-.347-.05-.077-.229-.122-.336-.101-.54.1-1.08.204-1.608.348-.734.2-1.426.506-2.23.451-1.094-.074-2.15.26-3.198.533-1.088.283-2.16.606-3.297.65-.977.036-1.953.123-2.931.181-.545.032-1.09.05-1.596.073-.085-.184-.149-.418-.198-.415-.35.024-.696.092-1.043.158-.023.005-.02.118-.04.177-.057.19-.096.393-.186.567-.39.75-.81 1.487-1.193 2.24-.278.543-.55 1.094-.766 1.664-.183.48-.284.99-.415 1.487-.052.193-.036.426-.142.578-.075.11-.155.217-.236.323-.242.318-.502.625-.75.938l-.072.086c-.044.064-.105.122-.13.194-.31.85-.815 1.593-1.29 2.353-.207.33-.385.683-.536 1.044-.336.815-.54 1.682-1.026 2.443-.211.331-.378.739-.41 1.124-.035.442-.21.792-.398 1.164-.417.824-.813 1.66-1.217 2.49-.034.07-.07.139-.103.21-.184.414-.44.813-.534 1.246-.12.552-.371 1.021-.633 1.504-.22.41-.404.846-.567 1.284-.146.389-.224.801-.359 1.195-.152.444-.333.879-.498 1.319-.097.258-.053.514.163.666.142.1.362.091.618.147l-.871.736a1.26 1.26 0 00-.056-.037c.043-.162.084-.324.124-.486a4.51 4.51 0 01-.081-.03c-.68.96-1.26 1.966-1.491 3.22l1.692-.32.026.056-.338.361c.374-.064.658-.144.948-.155.474-.018.876-.183 1.277-.43.533-.326 1.074-.716 1.663-.848.685-.153 1.288-.38 1.828-.808.06-.048.139-.074.21-.107l2.903-1.348c.399-.186.806-.359 1.194-.567" id="E2"/>
    <path d="M137.378 31.522c.383-.9.754-1.795 1.292-2.627a7.05 7.05 0 00.873-1.991c.12-.459.206-.909.476-1.302.415-.602.69-1.247.703-1.992.001-.12.096-.238.152-.355.073-.152.162-.297.224-.452.395-.985.79-1.97 1.177-2.959.105-.263.19-.534.281-.803.088-.263.09-.559.406-.715.113-.055.162-.255.224-.396.184-.426.353-.859.543-1.282.161-.36.367-.703.51-1.07.095-.24.1-.51.42-.597.07-.019.106-.163.155-.251.07-.122.125-.255.206-.367.327-.445.667-.88.988-1.328a.577.577 0 00.085-.335.74.74 0 01.365-.695c.685-.436.93-1.2 1.344-1.83.181-.277.135-.702.194-1.06.018-.114.023-.233.064-.34.118-.314.258-.622.376-.937.105-.28.163-.58.286-.85.201-.437.216-.43-.237-.762-.327.372-.652.756-.996 1.122-.117.126-.284.206-.423.313-.048.036-.098.087-.111.14-.15.58-.597.935-.991 1.33-.499.497-1.045.954-1.493 1.493a195.216 195.216 0 00-3.68 4.579c-.375.48-.67 1.026-.978 1.556-.223.382-.388.799-.614 1.18-.26.438-.533.872-.843 1.273-.31.398-.672.752-1.014 1.123-.01.01-.047-.005-.101-.013.063-1.077.11-2.157.2-3.232.06-.7.205-1.393.274-2.093.054-.544.01-1.098.078-1.638.126-.982.31-1.955.455-2.935.12-.809.219-1.62.322-2.431.047-.372.06-.75.139-1.114.044-.201.201-.376.294-.568.05-.106.138-.248.103-.333-.149-.378 0-.674.232-.934.293-.329.18-.685.15-1.048a.643.643 0 00-.217.234c-.377.744-.758 1.486-1.121 2.236-.17.351-.303.72-.46 1.077-.04.092-.113.169-.168.254-.183.28-.414.54-.54.844-.265.638-.472 1.299-.703 1.95-.157.44-.306.885-.476 1.32-.122.313-.235.642-.426.91-.41.574-.874 1.108-1.304 1.667-.325.425-.603.89-.953 1.293-.371.43-.801.807-1.207 1.208l-.122-.09c.034-.215.077-.429.103-.645.018-.154-.013-.32.03-.465.26-.876.112-1.784.215-2.672.043-.36.023-.729.064-1.09.036-.309.152-.61.17-.92a12.1 12.1 0 00-.003-1.44c-.06-.955.083-1.927-.247-2.862-.062-.177-.12-.269-.316-.26-.245.01-.42-.114-.597-.289a1.887 1.887 0 00-.621-.384c-.1-.04-.253.053-.383.085.07.112.131.231.215.332.036.041.137.024.18.064.117.109.219.234.325.353-.159.033-.244.013-.332 0-.345-.053-.358-.032-.249.297.058.173.134.352.136.528.013.83.033 1.663-.006 2.492-.03.634-.054 1.291-.238 1.89-.336 1.096-.788 2.157-1.195 3.231-.286.756-.57 1.512-.866 2.264-.378.957-.718 1.931-1.163 2.856-.361.75-.84 1.443-1.285 2.15a69.154 69.154 0 01-1.553 2.394c-.452.658-.854 1.323-1.081 2.104-.142.49-.38.995-.708 1.38-.527.617-.891 1.31-1.191 2.042-.33.806-.592 1.636-1.302 2.223-.304.25-.488.644-.94.718-.11.018-.213.148-.294.247-.78.947-1.808 1.563-2.856 2.15-.4.223-.817.414-1.2.661-.632.409-1.243.85-1.863 1.278l.05.126c.108 0 .217.01.323-.001.757-.077 1.426-.4 2.08-.759.457-.25.902-.509 1.43-.611.637-.124 1.27-.288 1.889-.482.693-.217 1.333-.586 2.07-.697.283-.042.567-.207.805-.38.474-.342.922-.724 1.37-1.101.095-.08.142-.212.213-.32.23-.35.448-.73.896-.827.861-.184 1.277-.933 1.854-1.465.237-.217.41-.501.74-.592.257-.07.352-.241.363-.49a.954.954 0 01.01-.096c.013-.095.035-.19.05-.286.54-.11.886-.47 1.173-.908.077-.117.16-.24.268-.327.607-.49 1.24-.949 1.83-1.458.633-.544 1.217-1.144 1.843-1.695.6-.528 1.228-1.024 1.844-1.534l.084.055c0 .386.049.78-.01 1.158-.12.75-.06 1.491.08 2.22.198 1.038.463 2.063.696 3.093.188.827.215 1.655.025 2.487-.052.228-.082.462-.121.694-.14.831-.29 1.661-.42 2.494a5.98 5.98 0 00-.056.857c-.001.094.064.19.097.278l.395-.05c-.235.935-.351 1.843-.023 2.743.342-.041.676-.411.708-.796.048-.557.064-1.118.143-1.67.091-.644.155-1.308.37-1.913.426-1.19.95-2.343 1.432-3.511.044-.11.091-.217.137-.325" id="W"/>
    <path d="M118.05 30.46c.368-.344.605-.83 1.142-.997-.162-.428-.44-.272-.664-.189-.947.35-1.916.599-2.915.751-.5.077-.983.26-1.478.381a4.89 4.89 0 01-.798.142c-.96.07-1.923.102-2.88.19-.582.054-1.157.185-1.837.3.164-.28.293-.473.397-.68.455-.902.889-1.816 1.358-2.711.337-.643.674-1.311 1.548-1.36.086-.004.17-.064.255-.098 1.956-.802 3.915-1.598 5.868-2.407 1.435-.594 2.702-1.462 3.91-2.427a37.81 37.81 0 011.785-1.326c.265-.187.576-.307.844-.49.35-.237.374-.398.222-.75-.335.135-.663.273-.997.397-.23.087-.504.105-.7.238-.657.442-1.363.572-2.15.66-1.8.203-3.582.571-5.371.87-.132.022-.266.032-.399.048l-.05-.087c.103-.142.21-.282.308-.427.232-.34.567-.655.657-1.03.086-.352.27-.479.527-.628.799-.464 1.606-.916 2.377-1.422.486-.319.968-.603 1.537-.743.866-.212 1.67-.554 2.397-1.095.687-.51 1.428-.948 2.144-1.418.056-.036.113-.072.155-.12.394-.435.89-.715 1.424-.94a.964.964 0 00.3-.226c.113-.115.184-.285.312-.37.38-.251.775-.475 1.167-.704.234-.136.481-.256.475-.645-.329.026-.651-.001-.939.085-.613.182-1.207.433-1.815.637-.232.078-.482.106-.724.158-.394.084-.795.148-1.182.26-.887.256-1.738.626-2.693.616-.434-.005-.883.096-1.302.223-1.037.313-2.063.663-3.09 1.01-.492.166-.978.266-1.492.087-.34-.12-.655-.12-.864.26-.073.133-.213.228-.318.345-.794.882-1.658 1.71-2.073 2.87-.096.267-.254.518-.414.756-1.786 2.638-3.386 5.399-5.237 7.996-.96 1.345-1.838 2.748-2.77 4.114-.264.388-.416.88-.913 1.076-.043.017-.08.07-.103.115-.159.3-.319.599-.469.903-.288.584-.571 1.171-.854 1.758-.04.08-.087.165-.096.25-.051.503-.075 1.01-.147 1.508-.032.225-.159.436-.234.656-.064.187-.116.378-.191.627 1.253.039 2.403-.004 3.501-.464.83-.348 1.663-.689 2.49-1.043.68-.29 1.408-.515 2.019-.914a14.89 14.89 0 013.47-1.693c1.017-.336 2.022-.685 3.007-1.108.98-.421 1.806-1.064 2.563-1.774" id="E3"/>
    <path d="M103.36 27.295c.357-.604.826-1.141 1.243-1.709.526-.714 1.04-1.436 1.58-2.14.508-.663 1.063-1.295 1.16-2.177.005-.054.055-.112.098-.153.362-.346.674-1.237.6-1.798l-.681 1.2-.082-.037c.018-.123.053-.246.052-.37-.008-.48.2-.819.645-1.003.26-.108.543-.173.784-.312.45-.258.88-.55 1.31-.84.418-.283.745-.649.964-1.111.07-.15.175-.295.297-.406.548-.502 1.12-.977 1.659-1.488.485-.461 1.108-.815 1.32-1.51a.926.926 0 01.473-.583c.697-.38 1.383-.779 2.082-1.154.191-.102.412-.194.624-.206.686-.039 1.222-.33 1.657-.85.087-.104.213-.211.34-.242.428-.106.869-.167 1.3-.267.57-.132 1.168-.209 1.694-.442 1.338-.594 2.678-1.158 4.112-1.489.605-.139 1.187-.381 1.773-.595.229-.083.444-.21.476-.543-.16-.015-.296-.03-.435-.04-.26-.02-.54.014-.777-.068-.427-.147-.847-.128-1.274-.071-.366.048-.716.069-1.066-.113-.162-.084-.383-.081-.575-.077-.888.018-1.776.08-2.664.068a9.317 9.317 0 00-3.086.466c-.158.053-.33.089-.496.094-2.09.06-4.182.09-6.27.177-.765.033-1.538.137-2.28.319-1.159.284-2.334.172-3.5.26-.518.04-1.043.008-1.564.001-.56-.006-1.122.011-1.679-.038-1.038-.092-2.072-.248-3.112-.33-.491-.038-.991.031-1.487.052-.873.036-1.75.033-2.617.121a3.715 3.715 0 00-1.778.66c.111.055.174.107.241.115.31.04.622.08.934.098.767.04 1.466.239 2.132.654.347.217.806.307 1.224.346.602.056 1.187.135 1.743.381.13.058.271.094.407.141.565.196 1.14.372 1.693.599.22.09.403.15.63.058.093-.037.236-.06.31-.014.305.187.587.408.886.605.083.054.194.064.288.104.101.044.2.095.296.15.143.083.273.205.427.252.71.218 1.425.416 2.204.64-.657.998-1.3 2.01-1.984 2.992-.274.393-.646.718-.97 1.077-.47.52-.683 1.214-.284 1.748-.179.214-.346.45-.549.65-1.112 1.096-2.075 2.305-2.808 3.69-.355.671-.803 1.27-1.304 1.844-.292.336-.418.816-.626 1.227-.036.072-.102.16-.17.178-1 .255-1.314 1.095-1.718 1.956l.321-.095.078.065c-.16.15-.307.316-.48.448-.692.533-1.31 1.122-1.616 1.972-.027.076-.094.176-.16.193-.273.07-.552.113-.853.17-.025-.116-.064-.216-.063-.314.005-.509-.001-1.02.044-1.526.02-.232.105-.488.24-.676.52-.723.652-1.483.383-2.336a1.388 1.388 0 01-.008-.762c.189-.65.462-1.28.212-1.977-.024-.067-.003-.156.015-.23.13-.544.249-1.091.4-1.63.135-.486.375-.952.445-1.444.114-.807.131-1.627.18-2.442a.438.438 0 00-.083-.292c-.223-.25-.203-.515-.12-.808.039-.14.02-.297.029-.446a3.27 3.27 0 00-.53.817c-.098.223-.186.471-.188.71a2.04 2.04 0 01-.368 1.134c-.262.395-.574.768-.769 1.194-.27.589-.447 1.22-.668 1.831-.434 1.2-.871 2.399-1.308 3.598-.013.036-.04.068-.056.103-.138.322-.29.639-.41.967-.274.741-.53 1.49-.8 2.232-.15.417-.323.827-.475 1.244-.133.365-.256.734-.37 1.105-.055.181-.122.376-.106.558.023.256.135.503.176.759.065.41.236.821-.148 1.205-.23.23-.21.562-.013.835.206.283.446.542.658.822.492.651 1.098 1.106 1.935 1.206a.905.905 0 01.452.186c.5.418 1.014.492 1.597.21.375-.18.77-.323 1.136-.52.788-.42 1.564-.864 2.344-1.3a.544.544 0 00.122-.098c.8-.82 1.456-1.732 1.902-2.798.204-.487.454-.968.755-1.4.759-1.089 1.666-2.066 2.346-3.217" id="J"/>
    <path d="M91.932 7.298c.121-.059.2-.206.299-.312-.16-.09-.316-.19-.483-.261-.06-.026-.152.019-.228.038-.484.124-.977.182-1.444.406-.323.154-.726.142-1.094.202-.023.003-.05-.018-.074-.018-.225 0-.46-.04-.672.012-.341.083-.664.235-.999.345-.433.144-.863.307-1.307.404-.65.14-1.312.224-1.966.341-.759.136-1.52.261-2.272.427-1.07.234-2.131.507-3.2.75a1.84 1.84 0 01-.676.046c-.77-.12-1.442.206-1.525.845-.047.358-.211.631-.358.933-.23.468-.436.947-.648 1.423-.07.155-.095.339-.194.469-.511.668-.752 1.465-1.023 2.235-.272.773-.575 1.51-1.087 2.154-.062.078-.15.208-.124.272.159.391-.131.604-.319.847-.24.309-.52.587-.761.895-.091.116-.135.276-.176.422-.054.194-.049.41-.13.587-.164.355-.366.693-.56 1.034-.117.205-.056.291.175.268-.26.551-.498 1.089-.765 1.61-.344.673-.717 1.33-1.067 1.998-.109.206-.309.399-.142.679.026.043-.07.173-.128.248-.05.064-.152.094-.187.162-.29.555-.571 1.114-.853 1.674-.029.057-.078.16-.058.179.262.242.001.434-.078.614-.172.39-.405.753-.596 1.135-.14.28-.258.569-.372.86-.04.1-.09.24-.052.324.127.277-.014.41-.203.584-.202.187-.365.425-.513.66-.195.307-.31.676-.544.944-.709.813-1.222 1.794-2.13 2.437-.212.15-.357.401-.079.677.605-.168 1.227-.313 1.713-.777a1.02 1.02 0 01.372-.2c.282-.095.572-.17.858-.255.21-.063.417-.164.631-.188 1.289-.146 2.418-.715 3.54-1.306.794-.419 1.559-.901 2.376-1.27 1.427-.646 2.827-1.336 4.156-2.168.685-.43 1.379-.846 2.07-1.266.601-.367 1.228-.697 1.799-1.107.404-.29.657-.767 1.15-.975.155-.066.26-.245.405-.347.502-.35 1.017-.68 1.512-1.039.128-.093.2-.265.297-.401a42.6 42.6 0 00-.092-.143c-.159.015-.325.003-.474.049-.374.115-.735.278-1.112.38-.932.254-1.87.491-2.807.723-1.521.377-2.911 1.155-4.46 1.445-.05.01-.096.04-.143.064l-2.63 1.31c-.088.043-.18.076-.365.154.179-.47.318-.85.469-1.227.26-.652.354-1.364.764-1.964.27-.397.468-.842.708-1.26.174-.303.313-.649.555-.886.99-.966 2.172-1.631 3.43-2.203 1.315-.6 2.818-.69 4.04-1.532.501-.346 1.07-.608 1.532-.998.76-.64 1.382-1.44 2.254-1.962.25-.15.448-.4.64-.63.085-.099.096-.26.14-.393l-.097-.087a12.943 12.943 0 01-4.068 1.566c-1.436.286-2.771 1.02-4.304.985-.073-.464.105-.851.305-1.186.407-.68.908-1.302 1.323-1.977.302-.493.692-.95.768-1.563.031-.253.13-.497.19-.717.802-.197.923-.972 1.396-1.51.054.392.267.235.434.166.752-.31 1.524-.571 2.216-1.02.598-.387 1.313-.645 1.803-1.135.463-.462 1.034-.567 1.553-.828.475-.238.991-.395 1.487-.592.056-.022.096-.081.145-.12.2-.16.38-.356.604-.468.5-.25 1.026-.449 1.53-.691" id="E"/>
    <path d="M63.496 34.968c.996-.896 1.663-1.991 2.186-3.204a90.548 90.548 0 011.426-3.13c.454-.953.977-1.874 1.41-2.836a263.748 263.748 0 002.556-5.893c.454-1.08.85-2.186 1.25-3.288.264-.722.485-1.46.734-2.187.138-.403.386-.774.306-1.236-.014-.083.061-.197.122-.276.399-.52.334-1.124.347-1.732-.379-.034-.44-.242-.324-.583-.258.127-.506.235-.665.42-.426.49-.812 1.017-1.218 1.526-.066.083-.18.225-.227.209-.279-.097-.315.123-.388.274-.306.636-.55 1.308-.912 1.909-.924 1.531-1.579 3.18-2.249 4.827-.245.602-.556 1.178-.859 1.754-.052.1-.206.19-.322.203-.439.051-.882.059-1.322.102-.435.041-.868.105-1.393.171.148-.365.233-.667.384-.93.463-.812.953-1.608.866-2.603-.01-.108.059-.226.1-.335.12-.315.241-.63.367-.943.088-.218.164-.444.28-.646.478-.83.978-1.647 1.453-2.479.358-.627.126-1.065-.559-1.095-.212.288-.367.628-.718.778a.906.906 0 01-.165.052c-.119.026-.214.182-.31.288-.093.105-.174.222-.287.367-.271-.373-.465-.144-.634.058-.235.28-.432.591-.665.872-.66.792-1.12 1.69-1.51 2.641-.411 1.001-.845 2-1.353 2.953-.544 1.021-.964 2.083-1.349 3.168-.41 1.155-.87 2.292-1.319 3.432-.225.57-.504 1.12-.71 1.697-.6 1.677-1.27 3.318-2.214 4.837a62.424 62.424 0 00-1.062 1.784c-.177.309-.36.623-.33 1.05.126-.072.22-.114.3-.173.498-.37.988-.753 1.493-1.113.229-.163.5-.267.73-.43.315-.223.691-.424.891-.732.183-.281.4-.495.634-.713.228-.212.394-.452.301-.794-.088-.325.01-.584.312-.752.343-.19.539-.481.67-.835.098-.267.183-.541.31-.795.388-.782.79-1.558 1.195-2.333.253-.485.519-.964.778-1.446.246-.458.534-.9.718-1.382.1-.26.219-.369.466-.44a47.927 47.927 0 001.94-.6c.388-.129.765-.29 1.206-.458-.335 1.005-.616 1.953-.966 2.875-.565 1.488-1.178 2.957-1.764 4.437-.115.29-.332.623-.27.881.091.39-.116.615-.251.884-.323.641-.69 1.26-1.007 1.903-.086.175-.052.406-.092.608-.092.463-.427.763-.739 1.081-.221.226-.426.467-.638.702l.089.126c.39-.152.793-.277 1.164-.467.32-.163.582-.397.786-.73.284-.463.62-.918 1.021-1.28" id="H"/>
    <path d="M68.232 12.193c.45-.246.871-.546 1.423-.566.265-.01.533-.123.786-.223.148-.058.256-.23.404-.27 1.337-.354 2.687-.661 3.96-1.223.689-.304 1.382-.596 2.072-.9.152-.066.283-.159.134-.381-.156.025-.32.056-.486.076-.101.013-.232.049-.302.002-.36-.24-.722-.128-1.096-.058a17.01 17.01 0 01-1.311.185c-.349.038-.708.008-1.05.074-.884.17-1.758.393-2.642.562-.242.046-.506-.023-.759-.046-.23-.02-.473-.11-.69-.065-.624.131-1.235.325-1.857.47-.207.05-.442.079-.644.031a3.862 3.862 0 00-1.975.035c-.566.16-1.136.306-1.709.436a5.043 5.043 0 01-.927.126c-.493.017-.987-.014-1.48-.004-.378.008-.762.106-1.13.06-.724-.091-1.44-.249-2.158-.39-.764-.15-1.516-.43-2.315-.206-.068.019-.152-.02-.23-.03-.593-.082-1.184-.182-1.78-.237-.23-.02-.469.062-.78.108.27.176.476.27.632.418.73.692 1.618 1.13 2.486 1.605.172.094.351.182.504.303.842.667 1.713 1.288 2.705 1.72.234.103.298.292.251.513-.034.163-.115.317-.182.472-.19.444-.419.875-.562 1.332-.11.351-.115.735-.16 1.105-.048.384-.056.767-.46 1.005-.245.144-.277.612-.105.783-.583 1.227-1.15 2.454-1.354 3.818-.124.827-.32 1.64-.726 2.389-.588 1.087-.934 2.268-1.273 3.447-.123.43-.127.893-.19 1.34a.34.34 0 01-.064.164c-.681.817-.916 1.76-.814 2.805a.926.926 0 01-.053.341c-.151.51-.31 1.018-.445 1.456.449.418.111.872.17 1.288.507-.139.896-.437 1.203-.825a36.64 36.64 0 001.21-1.64c.598-.845 1.151-1.721 1.402-2.74.261-1.062.722-2.042 1.19-3.018.319-.667.765-1.276 1.061-1.952.539-1.228 1.014-2.485 1.502-3.735.073-.188.064-.405.114-.604.06-.237.044-.523.412-.564.107-.012.232-.16.29-.276.21-.415.383-.85.592-1.265.27-.532.568-1.05.84-1.581.106-.208.138-.457.26-.65a8.558 8.558 0 001.051-2.472c.027-.106.179-.25.28-.255.588-.03 1.054-.366 1.555-.604a3.52 3.52 0 00.228-.12c.523-.296.992-.702 1.613-.806l-.008.01h.001c.462-.258.922-.52 1.386-.773" id="T"/>
    <path d="M49.877 8.814c-.48.305-1.217.283-1.314 1.006-.14.022-.276.002-.317.055-.255.336-.491.687-.73 1.035-.095.14-.19.28-.266.43-.343.661-.832 1.246-1.031 1.984a3.25 3.25 0 01-.636 1.245c-.165.2-.35.513-.3.721.051.216-.019.336-.078.488-.148.379-.302.755-.465 1.127a5.754 5.754 0 01-.34.685c-.095.157-.274.268-.345.43-.208.478-.382.97-.567 1.458-.013.033-.005.072-.007.108l.25.019.053.098c-.126.098-.285.173-.37.299-.178.261-.358.534-.465.829-.397 1.102-.765 2.216-1.146 3.324-.043.125-.105.243-.157.364-.05-.66-.05-.66-.479-.551-.137-.258-.288-.512-.405-.782-.025-.055.05-.195.117-.243.398-.283.462-.494.316-.953-.188-.593-.3-1.216-.541-1.785-.213-.499-.071-1.06-.358-1.534-.043-.072.05-.225.077-.342.03-.13.098-.267.077-.389a45.659 45.659 0 00-.361-1.863c-.092-.43-.167-.871-.33-1.275-.123-.3-.197-.576-.17-.901.013-.159-.09-.328-.14-.491-.117-.374-.28-.74-.339-1.123-.076-.496-.046-1.007-.101-1.507-.1-.905-.598-1.662-.989-2.453-.072-.147-.324-.21-.5-.298-.066-.034-.163-.009-.225-.045-.473-.28-.703-.028-.772.394-.034.205-.128.325-.32.393-.078.028-.14.101-.253.187.294.163.204.363.127.585-.22.64-.42 1.286-.628 1.93-.088.272-.138.564-.271.81-.125.231-.182.42-.004.59-.112.21-.22.375-.294.554-.323.783-.63 1.567-.789 2.408-.129.69-.335 1.365-.506 2.046-.082.327-.114.678-.256.976a3.346 3.346 0 00-.322 1.628c.012.245-.018.448-.112.663-.38.875-.737 1.75-.876 2.712-.132.913-.26 1.837-.702 2.678-.126.24-.18.517-.294.859l.425-.139c-.065.18-.073.357-.165.432-.446.364-.573.89-.765 1.386-.15.388-.32.769-.462 1.16-.227.623-.5 1.239-.642 1.883-.199.902-.527 1.687-1.22 2.339-.764.717-1.485 1.464-2.487 1.866-.331.133-.615.383-.92.579l.02.086c.349.04.703.052 1.044.127.395.086.779.072 1.084-.176.597-.484 1.325-.777 1.88-1.32.07-.07.19-.089.288-.132l.066.097-.632.612c.225-.042.498-.075.657-.228.59-.566 1.176-1.141 1.541-1.897.26-.537.525-1.073.822-1.591.536-.937 1.1-1.858 1.645-2.79a.623.623 0 00.098-.33c-.04-.609.314-1.081.538-1.596.132-.303.318-.582.47-.877.07-.138.107-.294.176-.432.297-.594.63-1.172.892-1.78.167-.385.344-.82-.119-1.185l.773-.705c.217.71.431 1.394.635 2.081.09.3.108.63.245.904.273.542.507 1.083.445 1.737l.392-.073c.07.4.146.78.201 1.162.023.156-.025.324.008.476.07.331.148.664.264.98.168.464.368.917.56 1.371.198.467.454.917.59 1.4.136.484.284.945.562 1.367.405.613.777 1.25 1.204 1.848.105.148.363.225.56.249.067.007.22-.245.238-.39.048-.387.07-.782.05-1.17-.014-.265.038-.42.274-.576.305-.2.626-.49.483-.897-.12-.34-.021-.56.19-.767.27-.265.373-.591.413-.948.03-.272-.007-.567.086-.814.309-.814.672-1.607.993-2.417.092-.233.115-.495.162-.746.037-.2.017-.422.101-.597.334-.695.494-1.432.576-2.187.047-.427.16-.815.41-1.167.328-.46.589-.954.712-1.514.037-.163.124-.315.175-.476.098-.31.214-.618.272-.936.14-.768.25-1.541.377-2.312.016-.102.048-.205.094-.298.289-.586.596-1.165.587-1.847-.001-.074.054-.147.069-.223.072-.367.14-.734.205-1.101.024-.139.012-.288.057-.417.128-.364.278-.72.418-1.079.224-.577.446-1.155.669-1.733.028-.073.067-.143.086-.218.16-.643.282-1.3.677-1.857.06-.085.166-.155.186-.246.028-.13.042-.304-.024-.4-.064-.09-.288-.184-.355-.141" id="N"/>
    <path d="M28.366 31.017c.046-.228.103-.396.293-.558.4-.34.617-.758.387-1.31-.045-.108.014-.272.058-.4.105-.303.29-.59.331-.9.069-.508.16-.998.375-1.467a8.75 8.75 0 00.351-.904c.064-.195.093-.402.128-.605.072-.409.034-.88.232-1.212.247-.413.204-.872.392-1.278.045-.098.04-.233.024-.346-.069-.462.069-.867.282-1.271.142-.27.249-.569.311-.868.169-.81.167-1.653.577-2.417.173-.322.204-.724.282-1.093.07-.33.096-.67.176-.996.1-.403.27-.79.348-1.196.106-.547.154-1.106.226-1.66.052-.399.098-.798.153-1.196.044-.318.076-.639.151-.949.074-.303.213-.59.291-.892.063-.243.08-.5.117-.754l-.42-.058.168-1.54c-.41-.144-.653-.037-.8.316-.036.085-.15.133-.216.208-.13.146-.282.282-.37.45-.222.427-.432.863-.614 1.309a72.03 72.03 0 00-1.128 2.87c-.398 1.102-.752 2.22-1.128 3.33-.042.123-.082.262-.168.352-.382.402-.237.954-.507 1.429l.376-.046c-.117.316-.142.681-.338.856-.444.399-.561.92-.72 1.435-.215.695-.42 1.393-.608 2.095-.154.579-.342 1.16-.392 1.751-.053.619-.248 1.162-.508 1.709-.183.386-.374.794-.427 1.21a3.536 3.536 0 01-.546 1.48c-.35.553-.678 1.12-1.188 1.549-.252.211-.503.415-.862.41-.724-.01-1.18-.428-1.27-1.213-.107-.941.085-1.899-.146-2.836-.017-.07.027-.153.03-.23.025-.645.211-1.257.359-1.88.123-.518.176-1.054.256-1.583.082-.538.187-1.067.01-1.62-.088-.272-.083-.599-.031-.885.142-.792.333-1.575.495-2.364.02-.096.01-.239-.047-.302-.298-.324-.323-1.02-.07-1.355.105-.138.13-.346.164-.528.048-.252-.01-.565.119-.755.604-.886.522-1.914.666-2.893.037-.254-.036-.521-.016-.779.053-.714.136-1.425.194-2.138a91.41 91.41 0 00.142-2.084c.012-.217-.012-.427-.311-.442-.053-.003-.107-.061-.155-.101-.321-.27-.52-.235-.66.17-.157.454-.279.922-.39 1.39-.072.304-.15.575-.478.709-.086.035-.167.163-.188.262-.165.8-.301 1.608-.476 2.406-.166.761-.35 1.52-.56 2.27-.218.778-.49 1.54-.714 2.317-.203.702-.388 1.41-.557 2.12a125.28 125.28 0 00-.78 3.474c-.087.419-.075.857-.13 1.283-.084.656-.194 1.31-.28 1.965-.065.503-.042 1.03-.183 1.508-.224.762-.125 1.466.136 2.182.05.136.07.31.03.444-.06.208-.232.388-.27.596-.184.995.144 1.911.527 2.798.284.657.637 1.286.99 1.91.15.262.347.517.578.708.3.248.645.448.99.633.892.48 1.826.585 2.79.23.89-.327 1.675-.827 2.435-1.392.969-.72 1.484-1.69 1.712-2.838" id="U"/>
    <path d="M13.988 13.374L12.27 14.64s-.266.347-.266.388c-.122.082-1.798.818-2.473.859-.04-.164-.143-.45-.143-.45l.123-.204s.225-.593.286-.859l-.204-.347s.02-.438.122-.577c.102-.139.409-.22.409-.22s.245-.573.327-.9c.082-.327.04-.245.061-.45.02-.204.062-.347.102-.429a4.09 4.09 0 00.123-.327s.838.266 1.186.143c.163-.081.551-.429 1.226-.143.306.02.552-.11.552-.11l1.43.417-.347.674h.43v.123h-.471l-.756 1.145zm4.947 23.456c-.312-.31-.627-.62-.917-.951-.271-.311-.473-.692-.772-.969-.663-.613-1.129-1.36-1.577-2.125-.064-.11-.133-.232-.15-.355a42.68 42.68 0 01-.23-1.944c-.094-1.056-.141-2.117-.252-3.17-.074-.697-.232-1.385-.336-2.079-.02-.137.032-.286.056-.428.017-.1.066-.2.061-.298-.023-.496-.056-.99-.095-1.485-.01-.115-.021-.26-.092-.334-.226-.233-.295-.492-.242-.804.044-.264.042-.537.105-.794.173-.697-.157-1.335-.234-2-.054-.465.052-.75.41-.983.185-.12.382-.223.578-.326 1.02-.536 1.999-1.125 2.645-2.126.06-.094.14-.219.123-.312-.084-.445.26-.611.509-.841.165-.154.39-.27.496-.456.273-.473.485-.98.74-1.464.117-.22.163-.418.094-.67-.085-.31-.14-.637.12-.918.044-.05.03-.15.051-.226.15-.549.012-1.047-.235-1.541a2.28 2.28 0 00-1.016-1.042c-.936-.485-1.928-.845-2.977-.899-.676-.034-1.355-.35-2.044-.047-.086.038-.207.01-.31-.002-.161-.02-.325-.09-.48-.072-.81.096-1.618.214-2.445.327l.011.205c-.445 0-.881-.01-1.316.002-.437.012-.873.046-1.325.07.006.132.002.182.013.23.012.055.037.106.063.174l-.497.077c-.574.089-.946.538-1.006 1.106a72.766 72.766 0 01-.424 3.35c-.066.43-.242.843-.37 1.27.159.048.26.139.127.33-.125.177-.266.346-.37.535-.124.228-.35.514-.293.7.086.28-.087.4-.15.587-.019.058-.106.122-.093.156.169.442-.09.864-.051 1.302.026.294.018.604-.044.892a38.288 38.288 0 01-.503 2.008c-.142.52-.309 1.033-.464 1.55l.099-.012c.032.114.12.25.087.34-.095.266-.253.509-.36.771-.116.288-.28.586-.285.883-.013.586-.196 1.095-.462 1.576.064.147.142.305.112.44-.138.622-.306 1.237-.464 1.855-.013.05-.058.11-.043.146.153.374-.074.65-.24.935-.105.18-.18.325.17.37-.416.433-.435.95-.533 1.443a2.04 2.04 0 01-.116.373c-.197.48-.305.967-.208 1.492.025.137-.006.336-.093.434-.254.284-.302.624-.353.97-.018.117-.014.241-.059.346-.214.497-.493.975-.382 1.556.015.08-.033.176-.067.259-.161.398-.344.788-.486 1.192-.068.193-.065.412-.094.618l.133.054c.293-.402.583-.806.88-1.205.077-.104.171-.196.26-.292.078-.084.205-.154.231-.251.095-.348.324-.582.582-.808.105-.091.185-.222.25-.348.214-.425.416-.857.624-1.285.213-.437.576-.81.555-1.347-.003-.093.08-.19.123-.285l1.507-3.312.474-1.043c-.097-.268.247-1.21.596-1.422 0-.034.01-.077-.002-.11-.136-.378-.049-.666.278-.92a1.64 1.64 0 00.45-.581c.097-.205.22-.46-.05-.635.433-.468.499-1.061.71-1.587.115-.288.265-.62.218-.901-.058-.345.043-.613.168-.886a.495.495 0 01.334-.243c.521-.062.991-.167 1.298-.667.076-.123.32-.186.49-.197.224-.016.454.048.709.08.04.419.038.855.134 1.27.15.64.372 1.262.553 1.896.082.288.14.583.205.876.144.662.285 1.324.425 1.988.013.062.03.15 0 .192-.246.336-.047.645.05.956.174.564.384 1.12.533 1.69.063.242-.03.523.02.772.12.573.28 1.138.43 1.705.27 1.018.618 2.023.79 3.058.112.683.515 1.256.571 1.94.007.079.088.152.147.248l.626-.189c.152.16.316.346.495.516.394.373.832.702 1.374.79.766.127 1.541.192 2.313.28.034.004.072-.026.16-.06-.061-.14-.094-.299-.188-.404-.172-.193-.387-.347-.57-.53z" id="R"/>
  </g>
</svg>
