<svg xmlns="http://www.w3.org/2000/svg" xml:space="preserve" width="236" height="113" baseProfile="tiny" viewBox="-0.973 -0.051 236 113"><path fill="#FFF" fill-rule="evenodd" d="M154.449 91.652c.561 1.162-.708 1.813-1.439 2.4-12.744-2.885-28.306-4.262-43.408-3.599-2.555.112-6.013.876-7.915-.72.026-1.762 1.163-4.41 2.158-5.995 16.108-.684 31.713-.002 45.808 2.638 3.055.573 6.493 1 6.715 2.639.194 1.441-.872 1.964-1.919 2.637zm-76.985-5.515c-.386 1.212-.906 2.29-2.638 2.158-.261.98.826.613.959 1.199-3.905 2.202-10.921 2.56-16.548 3.598-4.442.818-8.702 1.913-12.71 2.878-1.533-1.723-.096-5.123.479-6.955 5.526-.889 11.728-2.902 17.987-3.358 4.098-.298 8.621-.692 12.471.48zm85.14 4.797c-.024 1.655-1.048 2.309-2.159 2.878-.114 1.483-1.064 2.134-2.399 2.398-1.908-2.608 2.163-9.012 4.558-5.276zm.959 6.954c-1.056.018-1.505-.573-1.919-1.198.502-1.471 1.526-5.352 3.356-5.516.775-.07 2.167.695 2.159 1.918-.008 1.353-1.572 1.314-2.397 2.397-.717.941-.007 1.95-1.199 2.399z"/><path fill="#FFF" fill-rule="evenodd" d="M0 85.657h.24c.276-1.919.036-4.227.479-6.475 1.953-9.899 8.713-20.627 17.027-28.299 8.435-7.785 17.534-14.569 28.78-16.549 11.023-1.94 19.109 3.884 17.987 15.83 4.05-1.252 11.136-2.912 16.788-1.919-2.118-13.698-10.52-29.575-20.146-37.893-3.226-2.788-10.125-7.03-16.068-4.077-.977.485-.911.85-1.679 1.918-.765 1.064-2.017 2.206-2.398 4.078C40.578 6.168 46.936-.573 54.44.04c4.465.364 9.198 3.479 12.471 6.475 8.366 7.659 16.399 20.823 19.426 34.056 1.526 6.673 1.828 13.804 1.919 22.064.663.669 1.721-2.661 2.158-1.439 1.316.229.593 2.333.48 3.117-.315 2.17-1.443 4.21-2.638 5.996.03 4.681-.59 11.119-.48 16.549.054 2.629.099 8.419 2.398 8.872 2.553.505 4.667-4.437 5.517-6.234 1.471-3.115 1.973-5.883 3.358-8.394.077-3.04 1.433-4.801 1.438-7.915-.693-.734-2.396.688-2.638-.72-.26-.406-.473-1.738.72-2.397-.642-2.626-5.663-4.613-5.756-7.676-.067-2.172 2.814-4.519 5.276-4.556-.433-6.77 2.616-19.854 9.353-18.706 2.272.386 3.017 4.122 4.557 6.475 10.018-4.39 22.294 1.849 29.499 6.476.778.499 2.584 1.921 2.638 1.918.232-.014 3.193-2.91 4.077-3.598 2.782-2.163 6.064-4.147 10.313-4.556 6.2-.598 11.836 1.302 15.828 4.077 2.364-13.34 22.564-8.363 30.459-.48 2.278 2.277 4.29 6.033 5.756 7.914-.491.946.067 2.859-.959 4.077-2.397.378-2.798-.211-4.557-2.397-5.259-6.537-13.516-13.706-25.661-12.471.902 9.288 8.496 11.461 17.267 14.15 6.777 2.077 11.45 3.745 18.947 3.118 2.075-.174 4.786-1.359 5.036.958.21 1.963-4.092 3.476-4.317 5.037-11.996.018-23.501 5.12-31.418 10.792-3.006 2.154-5.974 5.253-9.113 9.113-2.87 3.527-9.388 11.061-4.318 14.63 1.124.79 3.876 1.653 5.757 1.918 13.711 1.932 32.81-4.975 42.929-11.75 2.609-1.748 9.625-6.085 9.353-9.594-.256-3.313-7.017-4.072-11.512-3.599-9.688 1.025-20.465 5.655-27.101 10.312-2.417 1.699-4.025 4.116-6.715 5.278 1.224-5.268 5.82-9.434 10.553-11.992 7.109-3.845 16.396-8.027 26.861-8.873 6.785-.55 16.113 2.023 11.991 9.353-2.463 4.378-7.285 8.592-11.751 11.991-4.297 3.27-9.934 6.863-14.87 8.634-5.722 2.054-11.472 4.593-17.267 5.276-6.958.82-19.25 2.136-23.023-3.117-1.362-1.895-1.152-6.123 0-9.113 1.681-4.365 5.431-8.707 7.673-11.991-9.604 3.283-16.507-2.674-23.263-6.717-5.172-3.094-10.212-5.885-15.109-7.914.395 2.005 2.419 3.653 2.398 5.276-.691 2.187-2.47 3.286-3.837 4.797-2.718-2.158-4.191-5.596-5.996-8.634-1.786-3.006-3.528-6.153-5.277-9.114-.801.238-1.116.963-1.918 1.2.077 3.596 7.331 12.512 2.399 14.629-.124.77-.668 2.086-1.678 2.639-3.834-3.042-4.131-9.62-6.476-14.149-2.744.454-4.724 1.671-7.436 2.157-.263 1.873 3.475 4.653 3.358 6.716-.077 1.343-1.272 1.089-2.159 2.159-1.024 1.233-.421 2.511-1.919 2.637-2.349.197-2.086-3.133-3.598-4.316-2.568 5.803-4.36 13.668-8.634 17.987-1.053 1.065-5.264 4.868-7.194 5.036-7.912.686-5.576-15.245-5.516-23.263-1.674.257-2.617 1.847-4.557 2.638-4.93 2.008-14.145 2.018-14.869-2.398-.794-4.841 4.601-8.345 6.235-11.271-3.508-.33-7.055-.62-10.073-1.439-4.006 5.529-8.896 15.33-14.629 19.905-2.539 2.026-5.911 2.572-7.435-.479.816-1.117.462-2.046 1.439-3.117 1.009-.646 1.473.995 2.638.959 2.176-.703 3.733-2.022 5.036-3.598-4.217-5.935-9.243-11.062-17.987-12.471-.667-2.317 1.152-6.295 3.358-6.715 5.356-1.021 14.335 7.756 16.787 10.552.91 1.038 1.842 2.505 2.159 3.358 2.436-2.601 3.985-6.088 5.516-9.594-4.077-2.513.246-8.77 3.357-11.032.413-8.861-3.511-13.943-13.43-13.191-5.205.396-10.773 2.977-15.349 5.517C19.415 52.109 5.146 66.19 4.077 81.101c-.424 5.915.945 9.892 6.955 8.633 6.971-1.46 13.77-7.783 19.426-10.312-.172 3.71-5.345 5.962-9.114 8.634-3.852 2.729-7.517 5.525-11.752 6.716-2.279.64-4.52.479-6.715 0C1.293 92.999.521 90.412 0 87.576v-1.919zm105.045-19.186c3.033-.324 5.736-.979 8.394-1.68-1.107-3.209-2.225-6.408-4.317-8.633-.552 1.366-.622 3.215-1.199 4.557-2.641-1.349-2.81-7.672-.958-10.073-1.207-1.431-1.481-3.796-3.119-4.796-2.096 6.438-.995 15.138 1.199 20.625zm9.593-15.829c1.446 2.907 3.014 6.686 4.317 9.594.38.85.737 2.854 2.158 2.157.624-1.055-1.061-1.575-.959-2.877 1.259-1.777 2.52-3.555 5.276-3.837 2.437 2.52 4.03 5.882 5.755 9.112 3.615-.567 7.55 1.193 11.032-.958.121-1.241-.678-1.56-.479-2.878-7.032-5.76-15.024-10.557-27.34-11.033.038.283-.042.681.24.72zm45.807-.719c-6.211-.51-12.84 1.414-13.67 6.236 1.501 1.575 2.202 3.36 1.199 5.756 3.107 5.615 12.802 9.638 20.866 6.475-.019-1.101-.946-1.293-1.68-1.679.993-.816-.371-1.981-.959-2.158-2.661-.801-9.623 1.992-13.191.48-.11-.77-.913-.847-.959-1.68 1.541-1.538 1.578-4.454 4.077-5.037 2.709-.63 7.478.247 11.032 0 2.133-.146 4.136-.533 5.756-1.198-1.886-3.112-6.555-6.709-12.471-7.195zM63.554 54.24c-.469 1.702-.876 3.402-1.678 5.276 4.846 1.839 13.852 1.606 18.466-.24.309.812 1.491.747 1.439 1.919-.043 1.261-1.819 1.208-2.398 2.158-.528.866.243 1.463-.48 2.158-1.009.973-3.324.783-4.796 1.439-3.252 1.45-5.553 4.148-6.476 7.434 3.658 2.962 12.266.929 14.629-1.918.179-4.461-.104-12.275-.24-17.987-4.374-2.589-13.796-2.509-18.466-.239zm115.358 5.756h-.479c-.982.777-1.149 2.37-2.398 2.878-.872.167-2.067.011-2.398.72 1.634 6.304 9.407 7.667 7.914 16.308 5.669-4.643 12.357-8.269 19.666-11.271-8.22-2.095-16.449-4.178-22.305-8.635zm-36.454 7.195c.204.835 1.181.896 1.918 1.198.116-1.105-1.067-1.814-1.918-1.198zm29.498 3.117c-2.832 3.837-8.37 6.132-15.588 4.797 4.934 3.667 10.855 8.473 19.426 6.955 2.27-4.417-.939-9.551-3.838-11.752z"/></svg>